<mxfile host="65bd71144e">
    <diagram id="orTN6nSt1EetT3WT8twD" name="PÃ¡gina-1">
        <mxGraphModel dx="1261" dy="1472" grid="1" gridSize="10" guides="1" tooltips="1" connect="1" arrows="1" fold="1" page="1" pageScale="1" pageWidth="827" pageHeight="1169" math="0" shadow="0">
            <root>
                <mxCell id="0"/>
                <mxCell id="1" parent="0"/>
                <mxCell id="2" value="" style="edgeStyle=none;html=1;" edge="1" parent="1" target="5">
                    <mxGeometry relative="1" as="geometry">
                        <mxPoint x="800" y="110" as="sourcePoint"/>
                        <Array as="points">
                            <mxPoint x="800" y="40"/>
                        </Array>
                    </mxGeometry>
                </mxCell>
                <mxCell id="3" value="INICIO" style="ellipse;whiteSpace=wrap;html=1;fillColor=#994C00;" vertex="1" parent="1">
                    <mxGeometry x="740" y="-40" width="120" height="80" as="geometry"/>
                </mxCell>
                <mxCell id="4" value="" style="edgeStyle=none;html=1;" edge="1" parent="1" source="5" target="36">
                    <mxGeometry relative="1" as="geometry">
                        <mxPoint x="800" y="210" as="targetPoint"/>
                    </mxGeometry>
                </mxCell>
                <mxCell id="5" value="altura , peso" style="shape=parallelogram;perimeter=parallelogramPerimeter;whiteSpace=wrap;html=1;fixedSize=1;fillColor=#FF6666;" vertex="1" parent="1">
                    <mxGeometry x="740" y="80" width="120" height="60" as="geometry"/>
                </mxCell>
                <mxCell id="6" value="IMC&amp;lt;16" style="rhombus;whiteSpace=wrap;html=1;fillColor=#FF99FF;" vertex="1" parent="1">
                    <mxGeometry x="760" y="300" width="80" height="80" as="geometry"/>
                </mxCell>
                <mxCell id="7" value="IMC&amp;lt;=17&amp;nbsp;" style="rhombus;whiteSpace=wrap;html=1;fillColor=#FF99FF;" vertex="1" parent="1">
                    <mxGeometry x="590" y="380" width="80" height="80" as="geometry"/>
                </mxCell>
                <mxCell id="8" value="" style="endArrow=classic;html=1;exitX=1;exitY=0.5;exitDx=0;exitDy=0;entryX=0.5;entryY=0;entryDx=0;entryDy=0;" edge="1" parent="1" source="6" target="26">
                    <mxGeometry width="50" height="50" relative="1" as="geometry">
                        <mxPoint x="780" y="310" as="sourcePoint"/>
                        <mxPoint x="1020" y="370" as="targetPoint"/>
                        <Array as="points">
                            <mxPoint x="1020" y="340"/>
                        </Array>
                    </mxGeometry>
                </mxCell>
                <mxCell id="9" value="" style="endArrow=none;html=1;exitX=0.5;exitY=0;exitDx=0;exitDy=0;entryX=0;entryY=0.5;entryDx=0;entryDy=0;" edge="1" parent="1" source="7" target="6">
                    <mxGeometry width="50" height="50" relative="1" as="geometry">
                        <mxPoint x="780" y="310" as="sourcePoint"/>
                        <mxPoint x="830" y="260" as="targetPoint"/>
                        <Array as="points">
                            <mxPoint x="630" y="340"/>
                        </Array>
                    </mxGeometry>
                </mxCell>
                <mxCell id="10" value="FALSE" style="text;html=1;strokeColor=none;fillColor=none;align=center;verticalAlign=middle;whiteSpace=wrap;rounded=0;" vertex="1" parent="1">
                    <mxGeometry x="680" y="300" width="60" height="30" as="geometry"/>
                </mxCell>
                <mxCell id="11" value="TRUE" style="text;html=1;strokeColor=none;fillColor=none;align=center;verticalAlign=middle;whiteSpace=wrap;rounded=0;" vertex="1" parent="1">
                    <mxGeometry x="900" y="300" width="60" height="30" as="geometry"/>
                </mxCell>
                <mxCell id="12" value="IMC&amp;lt;=18" style="rhombus;whiteSpace=wrap;html=1;fillColor=#FF99FF;" vertex="1" parent="1">
                    <mxGeometry x="414" y="460" width="80" height="80" as="geometry"/>
                </mxCell>
                <mxCell id="13" value="" style="endArrow=none;html=1;exitX=0;exitY=0.5;exitDx=0;exitDy=0;entryX=0.5;entryY=0;entryDx=0;entryDy=0;" edge="1" parent="1" source="7" target="12">
                    <mxGeometry width="50" height="50" relative="1" as="geometry">
                        <mxPoint x="690" y="570" as="sourcePoint"/>
                        <mxPoint x="740" y="520" as="targetPoint"/>
                        <Array as="points">
                            <mxPoint x="560" y="420"/>
                            <mxPoint x="454" y="420"/>
                        </Array>
                    </mxGeometry>
                </mxCell>
                <mxCell id="14" value="Infrapeso" style="shape=document;whiteSpace=wrap;html=1;boundedLbl=1;fillColor=#074146;" vertex="1" parent="1">
                    <mxGeometry x="690" y="460" width="120" height="80" as="geometry"/>
                </mxCell>
                <mxCell id="15" value="" style="endArrow=none;html=1;exitX=0.998;exitY=0.598;exitDx=0;exitDy=0;exitPerimeter=0;entryX=0.5;entryY=0;entryDx=0;entryDy=0;" edge="1" parent="1" source="7" target="14">
                    <mxGeometry width="50" height="50" relative="1" as="geometry">
                        <mxPoint x="690" y="570" as="sourcePoint"/>
                        <mxPoint x="740" y="520" as="targetPoint"/>
                        <Array as="points">
                            <mxPoint x="750" y="428"/>
                        </Array>
                    </mxGeometry>
                </mxCell>
                <mxCell id="16" value="IMC =&amp;lt;25" style="rhombus;whiteSpace=wrap;html=1;fillColor=#FF99FF;" vertex="1" parent="1">
                    <mxGeometry x="120" y="570" width="80" height="80" as="geometry"/>
                </mxCell>
                <mxCell id="17" value="bajo peso" style="shape=document;whiteSpace=wrap;html=1;boundedLbl=1;fillColor=#074146;" vertex="1" parent="1">
                    <mxGeometry x="470" y="570" width="120" height="80" as="geometry"/>
                </mxCell>
                <mxCell id="18" value="peso normal(saludable)" style="shape=document;whiteSpace=wrap;html=1;boundedLbl=1;fillColor=#074146;" vertex="1" parent="1">
                    <mxGeometry x="220" y="690" width="120" height="80" as="geometry"/>
                </mxCell>
                <mxCell id="19" value="" style="endArrow=none;html=1;exitX=0.5;exitY=0;exitDx=0;exitDy=0;entryX=0;entryY=0.5;entryDx=0;entryDy=0;" edge="1" parent="1" source="16" target="12">
                    <mxGeometry width="50" height="50" relative="1" as="geometry">
                        <mxPoint x="220" y="700" as="sourcePoint"/>
                        <mxPoint x="270" y="650" as="targetPoint"/>
                        <Array as="points">
                            <mxPoint x="160" y="500"/>
                        </Array>
                    </mxGeometry>
                </mxCell>
                <mxCell id="20" value="" style="endArrow=none;html=1;exitX=1;exitY=0.5;exitDx=0;exitDy=0;entryX=0.5;entryY=0;entryDx=0;entryDy=0;" edge="1" parent="1" source="12">
                    <mxGeometry width="50" height="50" relative="1" as="geometry">
                        <mxPoint x="500" y="700" as="sourcePoint"/>
                        <mxPoint x="534" y="570" as="targetPoint"/>
                        <Array as="points">
                            <mxPoint x="534" y="500"/>
                        </Array>
                    </mxGeometry>
                </mxCell>
                <mxCell id="21" value="" style="endArrow=none;html=1;exitX=0.563;exitY=0.845;exitDx=0;exitDy=0;exitPerimeter=0;" edge="1" parent="1" source="17">
                    <mxGeometry width="50" height="50" relative="1" as="geometry">
                        <mxPoint x="640" y="790" as="sourcePoint"/>
                        <mxPoint x="538" y="1320" as="targetPoint"/>
                        <Array as="points"/>
                    </mxGeometry>
                </mxCell>
                <mxCell id="22" value="" style="endArrow=none;html=1;exitX=1;exitY=0.5;exitDx=0;exitDy=0;entryX=0.5;entryY=0;entryDx=0;entryDy=0;" edge="1" parent="1" source="16" target="18">
                    <mxGeometry width="50" height="50" relative="1" as="geometry">
                        <mxPoint x="280" y="710" as="sourcePoint"/>
                        <mxPoint x="330" y="660" as="targetPoint"/>
                        <Array as="points">
                            <mxPoint x="280" y="610"/>
                        </Array>
                    </mxGeometry>
                </mxCell>
                <mxCell id="23" value="" style="endArrow=none;html=1;exitX=0;exitY=0.5;exitDx=0;exitDy=0;entryX=0.5;entryY=0;entryDx=0;entryDy=0;" edge="1" parent="1" source="16">
                    <mxGeometry width="50" height="50" relative="1" as="geometry">
                        <mxPoint x="280" y="710" as="sourcePoint"/>
                        <mxPoint x="40" y="690" as="targetPoint"/>
                        <Array as="points">
                            <mxPoint x="40" y="610"/>
                        </Array>
                    </mxGeometry>
                </mxCell>
                <mxCell id="24" value="" style="endArrow=none;html=1;entryX=0.507;entryY=0.863;entryDx=0;entryDy=0;entryPerimeter=0;" edge="1" parent="1" target="18">
                    <mxGeometry width="50" height="50" relative="1" as="geometry">
                        <mxPoint x="280" y="1320" as="sourcePoint"/>
                        <mxPoint x="290" y="780" as="targetPoint"/>
                        <Array as="points">
                            <mxPoint x="280" y="840"/>
                        </Array>
                    </mxGeometry>
                </mxCell>
                <mxCell id="25" value="" style="endArrow=none;html=1;exitX=0.52;exitY=0.843;exitDx=0;exitDy=0;exitPerimeter=0;" edge="1" parent="1" source="14">
                    <mxGeometry width="50" height="50" relative="1" as="geometry">
                        <mxPoint x="750" y="550" as="sourcePoint"/>
                        <mxPoint x="750" y="1320" as="targetPoint"/>
                    </mxGeometry>
                </mxCell>
                <mxCell id="26" value="Criterio de ingreso en hospital" style="shape=document;whiteSpace=wrap;html=1;boundedLbl=1;fillColor=#074146;" vertex="1" parent="1">
                    <mxGeometry x="960" y="380" width="120" height="80" as="geometry"/>
                </mxCell>
                <mxCell id="27" value="" style="endArrow=none;html=1;entryX=0.59;entryY=0.798;entryDx=0;entryDy=0;entryPerimeter=0;" edge="1" parent="1" target="26">
                    <mxGeometry width="50" height="50" relative="1" as="geometry">
                        <mxPoint x="1030" y="600" as="sourcePoint"/>
                        <mxPoint x="1160" y="550" as="targetPoint"/>
                        <Array as="points">
                            <mxPoint x="1030" y="530"/>
                        </Array>
                    </mxGeometry>
                </mxCell>
                <mxCell id="28" value="" style="endArrow=none;html=1;" edge="1" parent="1">
                    <mxGeometry width="50" height="50" relative="1" as="geometry">
                        <mxPoint x="1030" y="1321.199951171875" as="sourcePoint"/>
                        <mxPoint x="1030" y="600" as="targetPoint"/>
                        <Array as="points">
                            <mxPoint x="1030" y="960"/>
                        </Array>
                    </mxGeometry>
                </mxCell>
                <mxCell id="29" value="FIN" style="ellipse;whiteSpace=wrap;html=1;fillColor=#994C00;" vertex="1" parent="1">
                    <mxGeometry x="354" y="1370" width="120" height="80" as="geometry"/>
                </mxCell>
                <mxCell id="30" value="FALSE" style="text;html=1;strokeColor=none;fillColor=none;align=center;verticalAlign=middle;whiteSpace=wrap;rounded=0;" vertex="1" parent="1">
                    <mxGeometry x="514" y="390" width="60" height="30" as="geometry"/>
                </mxCell>
                <mxCell id="31" value="FALSE" style="text;html=1;strokeColor=none;fillColor=none;align=center;verticalAlign=middle;whiteSpace=wrap;rounded=0;" vertex="1" parent="1">
                    <mxGeometry x="330" y="470" width="60" height="30" as="geometry"/>
                </mxCell>
                <mxCell id="32" value="FALSE" style="text;html=1;strokeColor=none;fillColor=none;align=center;verticalAlign=middle;whiteSpace=wrap;rounded=0;" vertex="1" parent="1">
                    <mxGeometry x="60" y="580" width="60" height="30" as="geometry"/>
                </mxCell>
                <mxCell id="33" value="TRUE" style="text;html=1;strokeColor=none;fillColor=none;align=center;verticalAlign=middle;whiteSpace=wrap;rounded=0;" vertex="1" parent="1">
                    <mxGeometry x="690" y="405" width="60" height="30" as="geometry"/>
                </mxCell>
                <mxCell id="34" value="TRUE" style="text;html=1;strokeColor=none;fillColor=none;align=center;verticalAlign=middle;whiteSpace=wrap;rounded=0;" vertex="1" parent="1">
                    <mxGeometry x="490" y="470" width="60" height="30" as="geometry"/>
                </mxCell>
                <mxCell id="35" value="TRUE" style="text;html=1;strokeColor=none;fillColor=none;align=center;verticalAlign=middle;whiteSpace=wrap;rounded=0;" vertex="1" parent="1">
                    <mxGeometry x="220" y="580" width="60" height="30" as="geometry"/>
                </mxCell>
                <mxCell id="36" value="(IMC = peso[kg] / altura&lt;sup&gt;2&lt;/sup&gt; [m]" style="rounded=0;whiteSpace=wrap;html=1;fillColor=#000066;" vertex="1" parent="1">
                    <mxGeometry x="740" y="180" width="120" height="60" as="geometry"/>
                </mxCell>
                <mxCell id="37" value="" style="edgeStyle=none;html=1;" edge="1" parent="1" source="36" target="6">
                    <mxGeometry relative="1" as="geometry"/>
                </mxCell>
                <mxCell id="38" value="IMC =&amp;lt;30" style="rhombus;whiteSpace=wrap;html=1;fillColor=#FF99FF;" vertex="1" parent="1">
                    <mxGeometry y="680" width="80" height="80" as="geometry"/>
                </mxCell>
                <mxCell id="39" value="sobre peso(obesidad de grado I)" style="shape=document;whiteSpace=wrap;html=1;boundedLbl=1;fillColor=#003333;" vertex="1" parent="1">
                    <mxGeometry x="100" y="820" width="120" height="80" as="geometry"/>
                </mxCell>
                <mxCell id="40" value="IMC=&amp;lt;35" style="rhombus;whiteSpace=wrap;html=1;fillColor=#FF99FF;" vertex="1" parent="1">
                    <mxGeometry x="-180" y="820" width="80" height="80" as="geometry"/>
                </mxCell>
                <mxCell id="41" value="sobrepeso crÃ³nico(obesidad de grado II)" style="shape=document;whiteSpace=wrap;html=1;boundedLbl=1;fillColor=#003333;" vertex="1" parent="1">
                    <mxGeometry x="-70" y="940" width="120" height="80" as="geometry"/>
                </mxCell>
                <mxCell id="42" value="IMC=&amp;lt;40" style="rhombus;whiteSpace=wrap;html=1;fillColor=#FF99FF;" vertex="1" parent="1">
                    <mxGeometry x="-360" y="940" width="90" height="80" as="geometry"/>
                </mxCell>
                <mxCell id="43" value="obesidad premÃ³rbida(obesidad de grado III)" style="shape=document;whiteSpace=wrap;html=1;boundedLbl=1;fillColor=#003333;" vertex="1" parent="1">
                    <mxGeometry x="-240" y="1040" width="120" height="80" as="geometry"/>
                </mxCell>
                <mxCell id="44" value="IMC&amp;gt;40" style="rhombus;whiteSpace=wrap;html=1;fillColor=#FF99FF;" vertex="1" parent="1">
                    <mxGeometry x="-520" y="1040" width="80" height="80" as="geometry"/>
                </mxCell>
                <mxCell id="45" value="obesidad mÃ³rbida(obesidad de grado IV)" style="shape=document;whiteSpace=wrap;html=1;boundedLbl=1;fillColor=#003333;" vertex="1" parent="1">
                    <mxGeometry x="-413" y="1160" width="120" height="80" as="geometry"/>
                </mxCell>
                <mxCell id="46" value="" style="endArrow=none;html=1;entryX=1;entryY=0.5;entryDx=0;entryDy=0;exitX=0.5;exitY=0;exitDx=0;exitDy=0;" edge="1" parent="1" source="39" target="38">
                    <mxGeometry width="50" height="50" relative="1" as="geometry">
                        <mxPoint x="-60" y="820" as="sourcePoint"/>
                        <mxPoint x="-10" y="770" as="targetPoint"/>
                        <Array as="points">
                            <mxPoint x="160" y="720"/>
                        </Array>
                    </mxGeometry>
                </mxCell>
                <mxCell id="47" value="" style="endArrow=none;html=1;exitX=0.5;exitY=0;exitDx=0;exitDy=0;entryX=0;entryY=0.5;entryDx=0;entryDy=0;" edge="1" parent="1" source="40" target="38">
                    <mxGeometry width="50" height="50" relative="1" as="geometry">
                        <mxPoint x="-60" y="820" as="sourcePoint"/>
                        <mxPoint x="-10" y="770" as="targetPoint"/>
                        <Array as="points">
                            <mxPoint x="-140" y="720"/>
                        </Array>
                    </mxGeometry>
                </mxCell>
                <mxCell id="48" value="" style="endArrow=none;html=1;exitX=1;exitY=0.5;exitDx=0;exitDy=0;entryX=0.5;entryY=0;entryDx=0;entryDy=0;" edge="1" parent="1" source="40" target="41">
                    <mxGeometry width="50" height="50" relative="1" as="geometry">
                        <mxPoint x="-60" y="820" as="sourcePoint"/>
                        <mxPoint x="-10" y="770" as="targetPoint"/>
                        <Array as="points">
                            <mxPoint x="-10" y="860"/>
                        </Array>
                    </mxGeometry>
                </mxCell>
                <mxCell id="49" value="" style="endArrow=none;html=1;exitX=0.5;exitY=0;exitDx=0;exitDy=0;entryX=0;entryY=0.5;entryDx=0;entryDy=0;" edge="1" parent="1" source="42" target="40">
                    <mxGeometry width="50" height="50" relative="1" as="geometry">
                        <mxPoint x="-60" y="1070" as="sourcePoint"/>
                        <mxPoint x="-10" y="1020" as="targetPoint"/>
                        <Array as="points">
                            <mxPoint x="-315" y="860"/>
                        </Array>
                    </mxGeometry>
                </mxCell>
                <mxCell id="50" value="" style="endArrow=none;html=1;entryX=1;entryY=0.5;entryDx=0;entryDy=0;exitX=0.5;exitY=0;exitDx=0;exitDy=0;" edge="1" parent="1" source="43" target="42">
                    <mxGeometry width="50" height="50" relative="1" as="geometry">
                        <mxPoint x="-60" y="1140" as="sourcePoint"/>
                        <mxPoint x="-10" y="1090" as="targetPoint"/>
                        <Array as="points">
                            <mxPoint x="-180" y="980"/>
                        </Array>
                    </mxGeometry>
                </mxCell>
                <mxCell id="51" value="" style="endArrow=none;html=1;exitX=0.5;exitY=0;exitDx=0;exitDy=0;entryX=0;entryY=0.5;entryDx=0;entryDy=0;" edge="1" parent="1" source="44" target="42">
                    <mxGeometry width="50" height="50" relative="1" as="geometry">
                        <mxPoint x="-60" y="1140" as="sourcePoint"/>
                        <mxPoint x="-10" y="1090" as="targetPoint"/>
                        <Array as="points">
                            <mxPoint x="-480" y="980"/>
                        </Array>
                    </mxGeometry>
                </mxCell>
                <mxCell id="52" value="" style="endArrow=none;html=1;entryX=0.5;entryY=0;entryDx=0;entryDy=0;exitX=1;exitY=0.5;exitDx=0;exitDy=0;" edge="1" parent="1" source="44" target="45">
                    <mxGeometry width="50" height="50" relative="1" as="geometry">
                        <mxPoint x="-60" y="1140" as="sourcePoint"/>
                        <mxPoint x="-10" y="1090" as="targetPoint"/>
                        <Array as="points">
                            <mxPoint x="-353" y="1080"/>
                        </Array>
                    </mxGeometry>
                </mxCell>
                <mxCell id="53" value="" style="endArrow=none;html=1;exitX=0.522;exitY=0.865;exitDx=0;exitDy=0;exitPerimeter=0;" edge="1" parent="1" source="45">
                    <mxGeometry width="50" height="50" relative="1" as="geometry">
                        <mxPoint x="-350" y="1290" as="sourcePoint"/>
                        <mxPoint x="1030" y="1320" as="targetPoint"/>
                        <Array as="points">
                            <mxPoint x="-353" y="1320"/>
                        </Array>
                    </mxGeometry>
                </mxCell>
                <mxCell id="54" value="" style="endArrow=none;html=1;exitX=0.477;exitY=0.9;exitDx=0;exitDy=0;exitPerimeter=0;" edge="1" parent="1" source="39">
                    <mxGeometry width="50" height="50" relative="1" as="geometry">
                        <mxPoint x="540" y="1030" as="sourcePoint"/>
                        <mxPoint x="157" y="1320" as="targetPoint"/>
                    </mxGeometry>
                </mxCell>
                <mxCell id="55" value="" style="endArrow=none;html=1;entryX=0.503;entryY=0.87;entryDx=0;entryDy=0;entryPerimeter=0;" edge="1" parent="1" target="41">
                    <mxGeometry width="50" height="50" relative="1" as="geometry">
                        <mxPoint x="-10" y="1320" as="sourcePoint"/>
                        <mxPoint y="1030" as="targetPoint"/>
                    </mxGeometry>
                </mxCell>
                <mxCell id="56" value="" style="endArrow=none;html=1;entryX=0.51;entryY=0.895;entryDx=0;entryDy=0;entryPerimeter=0;" edge="1" parent="1" target="43">
                    <mxGeometry width="50" height="50" relative="1" as="geometry">
                        <mxPoint x="-180" y="1320" as="sourcePoint"/>
                        <mxPoint x="-40" y="1070" as="targetPoint"/>
                    </mxGeometry>
                </mxCell>
                <mxCell id="57" value="" style="endArrow=none;html=1;exitX=0.5;exitY=0;exitDx=0;exitDy=0;" edge="1" parent="1" source="29">
                    <mxGeometry width="50" height="50" relative="1" as="geometry">
                        <mxPoint x="930" y="940" as="sourcePoint"/>
                        <mxPoint x="414" y="1320" as="targetPoint"/>
                    </mxGeometry>
                </mxCell>
            </root>
        </mxGraphModel>
    </diagram>
</mxfile>